<mxfile host="app.diagrams.net" agent="Mozilla/5.0 (Windows NT 10.0; Win64; x64) AppleWebKit/537.36 (KHTML, like Gecko) Chrome/131.0.0.0 Safari/537.36" version="24.7.17">
  <diagram name="Página-1" id="CT2HHsa-nEkMPIw41Pn0">
    <mxGraphModel dx="880" dy="460" grid="1" gridSize="10" guides="1" tooltips="1" connect="1" arrows="1" fold="1" page="1" pageScale="1" pageWidth="827" pageHeight="1169" math="0" shadow="0">
      <root>
        <mxCell id="0" />
        <mxCell id="1" parent="0" />
        <mxCell id="WDZNzSjmk-kb1jYpvwJE-1" style="edgeStyle=orthogonalEdgeStyle;rounded=0;orthogonalLoop=1;jettySize=auto;html=1;endArrow=none;endFill=0;dashed=1;" edge="1" parent="1">
          <mxGeometry relative="1" as="geometry">
            <mxPoint x="140" y="600" as="targetPoint" />
            <mxPoint x="140" y="220" as="sourcePoint" />
          </mxGeometry>
        </mxCell>
        <mxCell id="WDZNzSjmk-kb1jYpvwJE-2" value="Usuário" style="shape=umlActor;verticalLabelPosition=bottom;verticalAlign=top;html=1;outlineConnect=0;" vertex="1" parent="1">
          <mxGeometry x="120" y="110" width="40" height="80" as="geometry" />
        </mxCell>
        <mxCell id="WDZNzSjmk-kb1jYpvwJE-3" value="" style="rounded=1;whiteSpace=wrap;html=1;" vertex="1" parent="1">
          <mxGeometry x="125" y="230" width="30" height="340" as="geometry" />
        </mxCell>
        <mxCell id="WDZNzSjmk-kb1jYpvwJE-4" style="edgeStyle=orthogonalEdgeStyle;rounded=0;orthogonalLoop=1;jettySize=auto;html=1;endArrow=none;endFill=0;dashed=1;" edge="1" parent="1">
          <mxGeometry relative="1" as="geometry">
            <mxPoint x="700" y="600" as="targetPoint" />
            <mxPoint x="700" y="220" as="sourcePoint" />
          </mxGeometry>
        </mxCell>
        <mxCell id="WDZNzSjmk-kb1jYpvwJE-5" value="Elevador" style="shape=umlActor;verticalLabelPosition=bottom;verticalAlign=top;html=1;outlineConnect=0;" vertex="1" parent="1">
          <mxGeometry x="680" y="110" width="40" height="80" as="geometry" />
        </mxCell>
        <mxCell id="WDZNzSjmk-kb1jYpvwJE-6" value="" style="rounded=1;whiteSpace=wrap;html=1;" vertex="1" parent="1">
          <mxGeometry x="685" y="230" width="30" height="340" as="geometry" />
        </mxCell>
        <mxCell id="WDZNzSjmk-kb1jYpvwJE-11" style="edgeStyle=orthogonalEdgeStyle;rounded=0;orthogonalLoop=1;jettySize=auto;html=1;endArrow=none;endFill=0;dashed=1;" edge="1" parent="1">
          <mxGeometry relative="1" as="geometry">
            <mxPoint x="421" y="599" as="targetPoint" />
            <mxPoint x="421" y="219" as="sourcePoint" />
          </mxGeometry>
        </mxCell>
        <mxCell id="WDZNzSjmk-kb1jYpvwJE-12" value="" style="rounded=1;whiteSpace=wrap;html=1;" vertex="1" parent="1">
          <mxGeometry x="406" y="229" width="30" height="340" as="geometry" />
        </mxCell>
        <mxCell id="WDZNzSjmk-kb1jYpvwJE-13" value="" style="shape=umlBoundary;whiteSpace=wrap;html=1;" vertex="1" parent="1">
          <mxGeometry x="381" y="134" width="70" height="55" as="geometry" />
        </mxCell>
        <mxCell id="WDZNzSjmk-kb1jYpvwJE-14" value="&lt;font style=&quot;font-size: 11px;&quot;&gt;Banco de&amp;nbsp;&lt;/font&gt;&lt;div style=&quot;font-size: 11px;&quot;&gt;&lt;font style=&quot;font-size: 11px;&quot;&gt;dados&lt;/font&gt;&lt;/div&gt;" style="text;html=1;align=center;verticalAlign=middle;resizable=0;points=[];autosize=1;strokeColor=none;fillColor=none;" vertex="1" parent="1">
          <mxGeometry x="386" y="179" width="70" height="40" as="geometry" />
        </mxCell>
        <mxCell id="WDZNzSjmk-kb1jYpvwJE-20" value="Realiza login" style="endArrow=classic;html=1;rounded=0;entryX=0.006;entryY=0.06;entryDx=0;entryDy=0;entryPerimeter=0;exitX=1;exitY=0.058;exitDx=0;exitDy=0;exitPerimeter=0;" edge="1" parent="1">
          <mxGeometry x="-0.0046" y="10" width="50" height="50" relative="1" as="geometry">
            <mxPoint x="155" y="250" as="sourcePoint" />
            <mxPoint x="406" y="249" as="targetPoint" />
            <mxPoint as="offset" />
          </mxGeometry>
        </mxCell>
        <mxCell id="WDZNzSjmk-kb1jYpvwJE-21" value="Retorna permissões" style="endArrow=classic;html=1;rounded=0;entryX=1.008;entryY=0.177;entryDx=0;entryDy=0;entryPerimeter=0;exitX=-0.029;exitY=0.18;exitDx=0;exitDy=0;exitPerimeter=0;dashed=1;" edge="1" parent="1">
          <mxGeometry x="0.0211" y="-10" width="50" height="50" relative="1" as="geometry">
            <mxPoint x="405" y="290" as="sourcePoint" />
            <mxPoint x="155" y="290" as="targetPoint" />
            <mxPoint as="offset" />
          </mxGeometry>
        </mxCell>
        <mxCell id="WDZNzSjmk-kb1jYpvwJE-22" value="Seleciona elevador(es)" style="endArrow=classic;html=1;rounded=0;exitX=0.99;exitY=0.296;exitDx=0;exitDy=0;exitPerimeter=0;entryX=-0.014;entryY=0.296;entryDx=0;entryDy=0;entryPerimeter=0;" edge="1" parent="1">
          <mxGeometry x="-0.0008" y="10" width="50" height="50" relative="1" as="geometry">
            <mxPoint x="155" y="331" as="sourcePoint" />
            <mxPoint x="406" y="330" as="targetPoint" />
            <mxPoint as="offset" />
          </mxGeometry>
        </mxCell>
        <mxCell id="WDZNzSjmk-kb1jYpvwJE-23" value="Retorna dados do(s) elevador(es)" style="endArrow=classic;html=1;rounded=0;entryX=1.012;entryY=0.412;entryDx=0;entryDy=0;entryPerimeter=0;exitX=0.01;exitY=0.412;exitDx=0;exitDy=0;exitPerimeter=0;dashed=1;" edge="1" parent="1">
          <mxGeometry x="0.0063" y="-10" width="50" height="50" relative="1" as="geometry">
            <mxPoint x="406" y="369" as="sourcePoint" />
            <mxPoint x="155" y="370" as="targetPoint" />
            <mxPoint as="offset" />
          </mxGeometry>
        </mxCell>
        <mxCell id="WDZNzSjmk-kb1jYpvwJE-24" value="Determina limites para elevador(es)" style="endArrow=classic;html=1;rounded=0;exitX=1.001;exitY=0.529;exitDx=0;exitDy=0;exitPerimeter=0;entryX=-0.027;entryY=0.53;entryDx=0;entryDy=0;entryPerimeter=0;" edge="1" parent="1">
          <mxGeometry x="-0.0007" y="10" width="50" height="50" relative="1" as="geometry">
            <mxPoint x="155" y="410" as="sourcePoint" />
            <mxPoint x="405" y="409" as="targetPoint" />
            <mxPoint as="offset" />
          </mxGeometry>
        </mxCell>
        <mxCell id="WDZNzSjmk-kb1jYpvwJE-25" value="Adiciona limites para o(s) elevador(es)" style="endArrow=classic;html=1;rounded=0;exitX=1.011;exitY=0.65;exitDx=0;exitDy=0;exitPerimeter=0;entryX=0.011;entryY=0.648;entryDx=0;entryDy=0;entryPerimeter=0;" edge="1" parent="1" source="WDZNzSjmk-kb1jYpvwJE-12" target="WDZNzSjmk-kb1jYpvwJE-6">
          <mxGeometry x="-0.0218" y="10" width="50" height="50" relative="1" as="geometry">
            <mxPoint x="470" y="450" as="sourcePoint" />
            <mxPoint x="520" y="400" as="targetPoint" />
            <mxPoint as="offset" />
          </mxGeometry>
        </mxCell>
        <mxCell id="WDZNzSjmk-kb1jYpvwJE-26" value="Retorna mensagem de sucesso" style="endArrow=classic;html=1;rounded=0;entryX=1;entryY=0.767;entryDx=0;entryDy=0;entryPerimeter=0;dashed=1;" edge="1" parent="1" target="WDZNzSjmk-kb1jYpvwJE-12">
          <mxGeometry x="0.0001" y="-10" width="50" height="50" relative="1" as="geometry">
            <mxPoint x="684" y="490" as="sourcePoint" />
            <mxPoint x="440" y="490" as="targetPoint" />
            <mxPoint as="offset" />
          </mxGeometry>
        </mxCell>
        <mxCell id="WDZNzSjmk-kb1jYpvwJE-27" value="Retorna sucesso da operação" style="endArrow=classic;html=1;rounded=0;entryX=1.012;entryY=0.882;entryDx=0;entryDy=0;entryPerimeter=0;exitX=0.004;exitY=0.885;exitDx=0;exitDy=0;exitPerimeter=0;dashed=1;" edge="1" parent="1" source="WDZNzSjmk-kb1jYpvwJE-12" target="WDZNzSjmk-kb1jYpvwJE-3">
          <mxGeometry x="0.0059" y="-10" width="50" height="50" relative="1" as="geometry">
            <mxPoint x="400" y="530" as="sourcePoint" />
            <mxPoint x="450" y="390" as="targetPoint" />
            <mxPoint as="offset" />
          </mxGeometry>
        </mxCell>
      </root>
    </mxGraphModel>
  </diagram>
</mxfile>
